# xmcd
#
# Track frame offsets: 
#        150
#        17470
#        30238
#
# Disc length: 616 seconds
#
# Revision: 5
# Processed by: cddbd v1.5.2PL0 Copyright (c) Steve Scherf et al.
# Submitted via: ExactAudioCopy v0.95b4
#
DISCID=10026603
DTITLE=Nirvana - All Apologies (single) (U.K.)
DYEAR=1993
DGENRE=Grunge
TTITLE0=All Apologies
TTITLE1=Rape Me
TTITLE2=Moist Vagina
EXTD=YEAR: 1996
EXTT0=
EXTT1=
EXTT2=
PLAYORDER=
